#
# object Chest_Belly: 150 vertices, 224 vertex normals, 28 texture coords, 124 polygons
#

v  7.8110 50.0317 15.6379
v  8.4661 32.8045 20.1065
v  18.2004 31.2204 13.1859
v  15.7476 44.8739 9.8080
v  10.8261 29.5637 -24.0793
v  12.0227 44.1042 -21.9853
v  17.8681 42.7565 -12.1596
v  18.2897 31.3058 -15.3775
v  20.4269 38.7012 -3.6231
v  21.9282 30.8424 -3.0788
v  17.7659 43.6357 5.1396
v  20.0643 31.0314 5.0535
v  20.4023 38.8205 -3.6270
v  17.8534 42.8370 -12.0720
v  16.3391 48.4385 -13.1328
v  18.1769 50.6957 -2.7393
v  16.1942 51.8417 5.6826
v  13.2340 52.7140 7.2909
v  6.7035 53.6151 10.2798
v  15.0276 56.0949 -11.3461
v  8.4306 53.8679 -19.2646
v  7.3723 60.7621 -17.0029
v  13.2211 62.0829 -12.6948
v  12.9578 63.3202 3.7615
v  9.2774 68.2497 -0.2338
v  4.5493 66.1935 4.3605
v  5.9972 62.7216 6.8647
v  4.4982 69.7268 -12.6603
v  8.8881 69.7782 -10.4011
v  9.3529 69.1122 -5.5139
v  14.4054 63.0415 -4.9842
v  9.3151 68.6809 -2.8739
v  13.6816 63.1809 -0.6113
v  17.4898 21.6226 3.0686
v  18.1926 21.1304 -3.1409
v  17.0859 21.9958 -15.4472
v  16.7870 22.1149 9.2780
v  9.8415 19.0285 14.2752
v  10.3218 16.4437 5.5361
v  10.8022 13.8589 -3.2030
v  8.2250 17.9728 -18.4180
v  4.6216 68.9570 -0.1059
v  2.7851 68.3122 1.2311
v  0.8036 69.7596 -13.5511
v  0.8036 70.6807 -7.7102
v  2.7350 70.7218 -7.5083
v  4.6216 70.4807 -6.2993
v  4.9308 69.5375 -2.5081
v  5.2400 70.1179 -4.9103
v  6.3504 58.3233 8.4043
v  0.8036 58.0601 8.8693
v  0.8036 53.2966 10.9239
v  9.4888 46.9738 -21.5263
v  0.8036 43.6960 -25.4181
v  0.8036 46.8888 -24.4786
v  15.0528 56.0110 -11.2629
v  15.7800 57.9049 -4.3132
v  15.0860 57.2205 0.4294
v  16.2130 51.8015 5.5742
v  13.2377 58.4450 3.9446
v  16.3332 48.4396 -13.2502
v  0.8036 62.0958 7.9692
v  15.7510 58.0115 -4.3302
v  15.0531 57.3241 0.4795
v  0.8036 54.1188 -21.8557
v  17.7565 43.7013 5.0276
v  0.8036 17.7723 13.1955
v  0.8036 14.3247 5.0533
v  17.7124 42.7967 -12.1158
v  20.2662 38.7609 -3.6251
v  16.1878 48.4390 -13.1915
v  14.8918 56.0530 -11.3045
v  15.6171 57.9582 -4.3217
v  14.9211 57.2723 0.4545
v  16.0552 51.8216 5.6284
v  17.6128 43.6685 5.0836
v  0.8036 32.0767 21.1803
v  0.8036 50.0317 15.6379
v  0.8036 65.3893 4.8379
v  0.8036 10.8769 -3.0888
v  0.8036 61.3484 -19.2329
v  0.8036 30.4097 -25.7527
v  0.8036 16.8937 -18.2112
v  0.8036 68.2485 1.7595
v  -6.2038 50.0317 15.6379
v  -14.1404 44.8739 9.8080
v  -16.5932 31.2204 13.1859
v  -6.8589 32.8045 20.1065
v  -9.2190 29.5637 -24.0793
v  -16.6826 31.3058 -15.3775
v  -16.2609 42.7565 -12.1596
v  -10.4156 44.1042 -21.9853
v  -20.3211 30.8424 -3.0788
v  -18.8197 38.7012 -3.6231
v  -18.4572 31.0314 5.0535
v  -16.1588 43.6357 5.1396
v  -18.7952 38.8205 -3.6270
v  -16.5698 50.6957 -2.7393
v  -14.7320 48.4385 -13.1328
v  -16.2463 42.8370 -12.0720
v  -11.6269 52.7140 7.2909
v  -14.5871 51.8417 5.6826
v  -5.0964 53.6151 10.2798
v  -13.4204 56.0949 -11.3461
v  -11.6140 62.0829 -12.6948
v  -5.7651 60.7621 -17.0029
v  -6.8234 53.8679 -19.2646
v  -11.3507 63.3202 3.7615
v  -4.3900 62.7216 6.8647
v  -2.9422 66.1935 4.3605
v  -7.6702 68.2497 -0.2338
v  -2.8911 69.7268 -12.6603
v  -7.2809 69.7782 -10.4011
v  -12.7982 63.0415 -4.9842
v  -7.7457 69.1122 -5.5139
v  -7.7080 68.6809 -2.8739
v  -12.0744 63.1809 -0.6113
v  -16.5854 21.1304 -3.1409
v  -15.8827 21.6226 3.0686
v  -15.4787 21.9958 -15.4472
v  -15.1799 22.1149 9.2780
v  -8.7147 16.4437 5.5361
v  -8.2344 19.0285 14.2752
v  -6.6179 17.9728 -18.4180
v  -9.1950 13.8589 -3.2030
v  -1.1780 68.3122 1.2311
v  -3.0145 68.9570 -0.1059
v  -1.1279 70.7218 -7.5083
v  -3.0145 70.4807 -6.2993
v  -3.3236 69.5375 -2.5081
v  -3.6328 70.1179 -4.9103
v  -4.7432 58.3233 8.4043
v  -7.8817 46.9738 -21.5263
v  -13.4456 56.0110 -11.2629
v  -14.1728 57.9049 -4.3132
v  -14.6058 51.8015 5.5742
v  -13.4788 57.2205 0.4294
v  -11.6305 58.4450 3.9446
v  -14.7261 48.4396 -13.2502
v  -14.1439 58.0115 -4.3302
v  -13.4459 57.3241 0.4795
v  -16.1494 43.7013 5.0276
v  -18.6591 38.7609 -3.6251
v  -16.1052 42.7967 -12.1158
v  -14.5806 48.4390 -13.1915
v  -13.2846 56.0530 -11.3045
v  -14.0100 57.9582 -4.3217
v  -13.3140 57.2723 0.4545
v  -14.4480 51.8216 5.6284
v  -16.0057 43.6685 5.0836
# 150 vertices

vn 0.6275 0.2505 0.7372
vn 0.8076 0.0949 -0.5821
vn 0.9577 0.1309 -0.2565
vn 0.9619 0.1837 0.2026
vn 0.9434 0.2064 0.2595
vn 0.9611 0.1798 0.2098
vn 0.9565 0.1976 0.2146
vn 0.9577 0.2029 -0.2041
vn 0.7966 0.2694 0.5412
vn 0.5710 0.5582 0.6020
vn 0.4244 0.4262 0.7989
vn 0.5450 0.5059 0.6686
vn 0.6684 0.6747 0.3131
vn 0.6724 0.2169 -0.7077
vn 0.6930 0.3103 -0.6507
vn 0.6612 0.2125 -0.7195
vn 0.5934 -0.0023 -0.8049
vn 0.2836 0.6915 0.6644
vn 0.2920 0.7243 0.6246
vn 0.2803 0.6788 0.6787
vn 0.2685 0.6347 0.7247
vn 0.4174 0.4798 -0.7717
vn 0.4016 0.4618 -0.7908
vn 0.4271 0.4908 -0.7594
vn 0.4367 0.5017 -0.7467
vn 0.8043 0.5876 -0.0884
vn 0.7679 0.6404 0.0142
vn 0.8149 0.5656 -0.1266
vn 0.8294 0.5244 -0.1926
vn 0.7567 0.6438 0.1139
vn 0.7558 0.6462 0.1059
vn 0.7577 0.6438 0.1073
vn 0.7585 0.6414 0.1156
vn 0.9281 -0.3212 0.1884
vn 0.9391 -0.2774 0.2030
vn 0.8186 -0.5502 0.1651
vn 0.8272 -0.5450 0.1368
vn 0.9475 -0.2614 -0.1840
vn 0.7930 -0.5827 -0.1780
vn 0.7440 -0.6467 -0.1682
vn 0.9506 -0.1208 -0.2858
vn 0.7981 -0.5712 0.1917
vn 0.5445 -0.7957 0.2653
vn 0.5956 -0.7694 0.2310
vn 0.6709 -0.6793 -0.2973
vn 0.5568 -0.8070 -0.1965
vn 0.5693 -0.3228 0.7561
vn 0.6229 -0.3060 -0.7200
vn 0.1262 0.8427 0.5234
vn 0.0309 0.9855 -0.1668
vn 0.0956 0.9883 -0.1190
vn 0.1777 0.9624 0.2053
vn 0.2588 0.9593 0.1126
vn 0.0696 0.3845 0.9205
vn 0.2815 0.3258 -0.9026
vn 0.9502 0.2407 -0.1981
vn 0.9199 0.3503 0.1760
vn 0.4541 0.2727 0.8482
vn 0.5074 0.3376 0.7928
vn 0.7743 0.2226 -0.5924
vn 0.6850 0.6557 -0.3176
vn 0.7315 0.4116 -0.5436
vn 0.7341 0.1911 -0.6516
vn 0.1160 0.2805 0.9528
vn 0.9551 0.2422 -0.1710
vn 0.9508 0.2634 0.1629
vn 0.4024 0.0574 0.9137
vn 0.4796 0.2347 0.8455
vn 0.3066 0.3315 -0.8922
vn 0.9119 0.2453 0.3292
vn 0.9501 0.1925 0.2457
vn 0.9648 0.1675 0.2030
vn 0.7542 0.6469 0.1130
vn 0.7546 0.6479 0.1043
vn 0.9445 -0.2419 0.2221
vn 0.6520 -0.7293 0.2075
vn 0.2319 0.9505 0.2067
vn 0.7296 0.4599 0.5061
vn 0.1658 -0.9353 0.3125
vn 0.0614 -0.7503 0.6583
vn -0.0000 -0.7861 0.6181
vn 0.0000 -0.9305 0.3663
vn 0.9441 0.1782 0.2772
vn 0.3235 0.8886 0.3251
vn 0.3420 0.2648 0.9016
vn 0.3537 -0.1682 0.9201
vn 0.3602 -0.9087 0.2108
vn 0.3708 -0.9254 -0.0787
vn 0.3670 -0.5990 -0.7116
vn 0.3548 0.1294 -0.9259
vn 0.3255 0.8627 -0.3870
vn 0.3602 -0.7958 -0.4869
vn 0.3400 -0.0860 -0.9365
vn 0.3279 0.2790 -0.9026
vn 0.3106 0.9083 -0.2801
vn 0.3087 0.9340 0.1795
vn 0.3140 0.6872 0.6551
vn 0.3431 0.0024 0.9393
vn 0.3626 -0.7602 0.5392
vn 0.1633 -0.3707 0.9143
vn 0.0000 -0.4152 0.9097
vn 0.0567 0.2742 0.9600
vn 0.0076 0.8273 0.5617
vn 0.0323 0.6438 0.7645
vn 0.2295 -0.9158 0.3296
vn 0.0000 -0.9208 0.3899
vn 0.2778 0.5141 -0.8115
vn 0.3209 0.3309 -0.8874
vn 0.2345 0.0745 -0.9693
vn 0.0802 -0.4704 -0.8788
vn -0.0000 -0.9496 -0.3135
vn 0.1305 -0.9513 -0.2793
vn 0.2268 -0.9142 -0.3359
vn 0.0000 -0.9292 -0.3697
vn -0.0079 0.7790 0.6269
vn -0.6275 0.2505 0.7372
vn -0.8076 0.0949 -0.5821
vn -0.9577 0.1309 -0.2565
vn -0.9619 0.1837 0.2026
vn -0.9565 0.1976 0.2146
vn -0.9611 0.1798 0.2098
vn -0.9434 0.2064 0.2595
vn -0.9577 0.2029 -0.2041
vn -0.7966 0.2694 0.5412
vn -0.5710 0.5582 0.6020
vn -0.6684 0.6747 0.3131
vn -0.5450 0.5059 0.6686
vn -0.4244 0.4262 0.7989
vn -0.6724 0.2169 -0.7077
vn -0.5934 -0.0023 -0.8049
vn -0.6612 0.2125 -0.7195
vn -0.6930 0.3103 -0.6507
vn -0.2836 0.6915 0.6644
vn -0.2685 0.6347 0.7247
vn -0.2803 0.6788 0.6787
vn -0.2920 0.7243 0.6246
vn -0.4174 0.4798 -0.7717
vn -0.4367 0.5017 -0.7467
vn -0.4271 0.4908 -0.7594
vn -0.4016 0.4618 -0.7908
vn -0.8043 0.5876 -0.0884
vn -0.8294 0.5244 -0.1926
vn -0.8149 0.5656 -0.1266
vn -0.7679 0.6404 0.0142
vn -0.7567 0.6438 0.1139
vn -0.7585 0.6414 0.1156
vn -0.7577 0.6438 0.1073
vn -0.7558 0.6462 0.1059
vn -0.9281 -0.3212 0.1884
vn -0.8272 -0.5450 0.1368
vn -0.8186 -0.5502 0.1651
vn -0.9391 -0.2774 0.2030
vn -0.9475 -0.2614 -0.1840
vn -0.9506 -0.1208 -0.2858
vn -0.7440 -0.6467 -0.1682
vn -0.7930 -0.5827 -0.1780
vn -0.7981 -0.5712 0.1917
vn -0.5956 -0.7694 0.2310
vn -0.5445 -0.7957 0.2653
vn -0.5568 -0.8070 -0.1965
vn -0.6709 -0.6793 -0.2973
vn -0.5693 -0.3228 0.7561
vn -0.6229 -0.3060 -0.7200
vn -0.1262 0.8427 0.5234
vn -0.0309 0.9855 -0.1668
vn -0.0956 0.9883 -0.1190
vn -0.1777 0.9624 0.2053
vn -0.2588 0.9593 0.1126
vn -0.0696 0.3845 0.9205
vn -0.2815 0.3258 -0.9026
vn -0.9502 0.2407 -0.1981
vn -0.9199 0.3503 0.1760
vn -0.4541 0.2727 0.8482
vn -0.5074 0.3376 0.7928
vn -0.7743 0.2226 -0.5924
vn -0.7341 0.1911 -0.6516
vn -0.7315 0.4116 -0.5436
vn -0.6850 0.6557 -0.3176
vn -0.1160 0.2805 0.9528
vn -0.9551 0.2422 -0.1710
vn -0.9508 0.2634 0.1629
vn -0.4796 0.2347 0.8455
vn -0.4024 0.0574 0.9137
vn -0.3066 0.3315 -0.8922
vn -0.9501 0.1925 0.2457
vn -0.9119 0.2453 0.3292
vn -0.9648 0.1675 0.2030
vn -0.7542 0.6469 0.1130
vn -0.7546 0.6479 0.1042
vn -0.9445 -0.2419 0.2221
vn -0.6520 -0.7293 0.2075
vn -0.2319 0.9505 0.2067
vn -0.7296 0.4599 0.5061
vn -0.1658 -0.9353 0.3125
vn -0.0614 -0.7503 0.6583
vn -0.9441 0.1782 0.2772
vn -0.3235 0.8886 0.3251
vn -0.3420 0.2648 0.9016
vn -0.3537 -0.1682 0.9201
vn -0.3602 -0.9087 0.2108
vn -0.3708 -0.9254 -0.0787
vn -0.3670 -0.5990 -0.7116
vn -0.3548 0.1294 -0.9259
vn -0.3255 0.8627 -0.3870
vn -0.3602 -0.7958 -0.4869
vn -0.3400 -0.0860 -0.9365
vn -0.3279 0.2790 -0.9026
vn -0.3106 0.9083 -0.2801
vn -0.3087 0.9340 0.1795
vn -0.3140 0.6872 0.6551
vn -0.3431 0.0024 0.9393
vn -0.3626 -0.7602 0.5392
vn -0.1633 -0.3707 0.9143
vn -0.0567 0.2742 0.9600
vn -0.0076 0.8273 0.5617
vn -0.0323 0.6438 0.7645
vn -0.2295 -0.9158 0.3296
vn -0.2778 0.5141 -0.8115
vn -0.3209 0.3309 -0.8874
vn -0.2345 0.0745 -0.9693
vn -0.0802 -0.4704 -0.8788
vn -0.2268 -0.9142 -0.3359
vn -0.1305 -0.9513 -0.2793
vn 0.0079 0.7790 0.6269
# 224 vertex normals

vt 1.0000 1.0000 0.0000
vt 0.0000 1.0000 0.0000
vt 0.5000 1.0000 0.0000
vt 0.2500 1.0000 0.0000
vt 1.0000 0.6250 0.0000
vt 1.0000 0.5000 0.0000
vt 1.0000 0.7500 0.0000
vt 1.0000 0.2500 0.0000
vt 1.0000 0.0000 0.0000
vt 0.0423 1.0000 0.0000
vt 0.0711 1.0000 0.0000
vt 0.0286 1.0000 0.0000
vt 0.0269 1.0000 0.0000
vt 0.0042 1.0000 0.0000
vt 0.0054 1.0000 0.0000
vt 0.0304 1.0000 0.0000
vt 0.0061 1.0000 0.0000
vt 0.0177 0.5000 0.0000
vt 0.0169 0.2500 0.0000
vt 0.0208 1.0000 0.0000
vt 0.0227 1.0000 0.0000
vt 0.0360 1.0000 0.0000
vt 0.0160 0.0000 0.0000
vt 0.0071 1.0000 0.0000
vt 0.0046 1.0000 0.0000
vt 0.0063 1.0000 0.0000
vt 0.9937 1.0000 0.0000
vt 0.0694 1.0000 0.0000
# 28 texture coords

g Chest_Belly
usemtl wire_198224087
s off
f 1/1/1 2/1/1 3/1/1 4/1/1 
f 5/1/2 6/1/2 7/1/2 8/1/2 
f 8/1/3 7/1/3 9/1/3 10/1/3 
s 1
f 9/1/4 11/1/5 12/1/6 10/1/7 
s off
f 13/1/8 14/1/8 15/1/8 16/1/8 
f 4/1/9 11/1/9 17/1/9 18/1/9 
s 2
f 4/1/10 18/1/11 19/2/12 1/2/13 
s 1
f 20/1/14 21/2/15 22/2/16 23/1/17 
f 24/1/18 25/2/19 26/2/20 27/2/21 
s 2
f 28/2/22 29/1/23 23/1/24 22/2/25 
s 8
f 29/1/26 30/3/27 31/1/28 23/1/29 
s 16
f 32/4/30 33/1/31 31/1/32 30/3/33 
s 4
f 10/1/34 12/1/35 34/5/36 35/6/37 
s 8
f 10/1/38 35/6/39 36/3/40 8/1/41 
s 4
f 37/7/42 38/6/43 39/8/44 34/5/36 
s 8
f 35/6/39 40/9/45 41/2/46 36/3/40 
s off
f 37/7/47 3/1/47 2/1/47 38/6/47 
f 5/1/48 8/1/48 36/3/48 41/2/48 
f 26/2/49 25/2/49 42/2/49 43/2/49 
f 44/10/50 45/11/50 46/1/50 28/1/50 
f 29/1/51 28/2/51 46/2/51 47/1/51 
f 25/2/52 32/4/52 48/4/52 42/2/52 
f 30/3/53 29/1/53 47/1/53 49/3/53 
f 19/1/54 50/1/54 51/12/54 52/13/54 
f 53/1/55 6/1/55 54/14/55 55/15/55 
f 56/1/56 57/1/56 16/1/56 15/1/56 
f 57/1/57 58/1/57 59/1/57 16/1/57 
s 2
f 60/1/58 50/2/59 19/2/12 18/1/11 
s 1
f 7/1/60 6/2/61 53/2/62 61/1/63 
f 61/1/63 53/2/62 21/2/15 20/1/14 
s off
f 50/1/64 27/1/64 62/16/64 51/12/64 
f 23/1/65 31/1/65 63/1/65 20/1/65 
f 63/1/66 31/1/66 33/1/66 64/1/66 
s 2
f 60/1/58 24/1/67 27/2/68 50/2/59 
s off
f 53/1/69 55/15/69 65/17/69 21/1/69 
s 1
f 11/1/5 4/1/70 3/1/71 12/1/6 
s off
f 66/1/72 13/1/72 16/1/72 59/1/72 
s 16
f 25/2/73 24/1/74 33/1/31 32/4/30 
s 4
f 12/1/35 3/1/75 37/7/42 34/5/36 
f 40/9/76 35/6/37 34/5/36 39/8/44 
s off
f 32/4/77 30/3/77 49/3/77 48/4/77 
f 64/1/78 60/1/78 18/1/78 17/1/78 
s 1
f 39/8/79 38/6/80 67/18/81 68/19/82 
s off
f 24/1/83 60/1/83 64/1/83 33/1/83 
f 7/1/84 69/1/84 70/1/84 9/1/84 
f 61/1/85 71/1/85 69/1/85 7/1/85 
f 20/1/86 72/1/86 71/1/86 61/1/86 
f 63/1/87 73/1/87 72/1/87 20/1/87 
f 64/1/88 74/1/88 73/1/88 63/1/88 
f 17/1/89 75/1/89 74/1/89 64/1/89 
f 11/1/90 76/1/90 75/1/90 17/1/90 
f 9/1/91 70/1/91 76/1/91 11/1/91 
f 14/1/92 13/1/92 70/1/92 69/1/92 
f 15/1/93 14/1/93 69/1/93 71/1/93 
f 56/1/94 15/1/94 71/1/94 72/1/94 
f 57/1/95 56/1/95 72/1/95 73/1/95 
f 58/1/96 57/1/96 73/1/96 74/1/96 
f 59/1/97 58/1/97 74/1/97 75/1/97 
f 66/1/98 59/1/98 75/1/98 76/1/98 
f 13/1/99 66/1/99 76/1/99 70/1/99 
s 1
f 38/6/80 2/1/100 77/20/101 67/18/81 
s off
f 2/1/102 1/1/102 78/21/102 77/20/102 
f 78/21/103 1/1/103 19/1/103 52/13/103 
f 27/1/104 26/1/104 79/22/104 62/16/104 
s 1
f 40/9/105 39/8/79 68/19/82 80/23/106 
s off
f 28/1/107 22/1/107 81/24/107 44/10/107 
f 22/1/108 21/1/108 65/17/108 81/24/108 
f 54/14/109 6/1/109 5/1/109 82/25/109 
f 82/25/110 5/1/110 41/1/110 83/26/110 
s 2
f 83/27/111 41/2/112 40/9/113 80/23/114 
s off
f 26/1/115 43/1/115 84/28/115 79/22/115 
f 85/1/116 86/1/116 87/1/116 88/1/116 
f 89/1/117 90/1/117 91/1/117 92/1/117 
f 90/1/118 93/1/118 94/1/118 91/1/118 
s 1
f 94/1/119 93/1/120 95/1/121 96/1/122 
s off
f 97/1/123 98/1/123 99/1/123 100/1/123 
f 86/1/124 101/1/124 102/1/124 96/1/124 
s 2
f 86/1/125 85/2/126 103/2/127 101/1/128 
s 1
f 104/1/129 105/1/130 106/2/131 107/2/132 
f 108/1/133 109/2/134 110/2/135 111/2/136 
s 2
f 112/2/137 106/2/138 105/1/139 113/1/140 
s 8
f 113/1/141 105/1/142 114/1/143 115/3/144 
s 16
f 116/4/145 115/3/146 114/1/147 117/1/148 
s 4
f 93/1/149 118/6/150 119/5/151 95/1/152 
s 8
f 93/1/153 90/1/154 120/3/155 118/6/156 
s 4
f 121/7/157 119/5/151 122/8/158 123/6/159 
s 8
f 118/6/156 120/3/155 124/2/160 125/9/161 
s off
f 121/7/162 123/6/162 88/1/162 87/1/162 
f 89/1/163 124/2/163 120/3/163 90/1/163 
f 110/2/164 126/2/164 127/2/164 111/2/164 
f 44/10/165 112/1/165 128/1/165 45/11/165 
f 113/1/166 129/1/166 128/2/166 112/2/166 
f 111/2/167 127/2/167 130/4/167 116/4/167 
f 115/3/168 131/3/168 129/1/168 113/1/168 
f 103/1/169 52/13/169 51/12/169 132/1/169 
f 133/1/170 55/15/170 54/14/170 92/1/170 
f 134/1/171 99/1/171 98/1/171 135/1/171 
f 135/1/172 98/1/172 136/1/172 137/1/172 
s 2
f 138/1/173 101/1/128 103/2/127 132/2/174 
s 1
f 91/1/175 139/1/176 133/2/177 92/2/178 
f 139/1/176 104/1/129 107/2/132 133/2/177 
s off
f 132/1/179 51/12/179 62/16/179 109/1/179 
f 105/1/180 104/1/180 140/1/180 114/1/180 
f 140/1/181 141/1/181 117/1/181 114/1/181 
s 2
f 138/1/173 132/2/174 109/2/182 108/1/183 
s off
f 133/1/184 107/1/184 65/17/184 55/15/184 
s 1
f 96/1/122 95/1/121 87/1/185 86/1/186 
s off
f 142/1/187 136/1/187 98/1/187 97/1/187 
s 16
f 111/2/188 116/4/145 117/1/148 108/1/189 
s 4
f 95/1/152 119/5/151 121/7/157 87/1/190 
f 125/9/191 122/8/158 119/5/151 118/6/150 
s off
f 116/4/192 130/4/192 131/3/192 115/3/192 
f 141/1/193 102/1/193 101/1/193 138/1/193 
s 1
f 122/8/194 68/19/82 67/18/81 123/6/195 
s off
f 108/1/196 117/1/196 141/1/196 138/1/196 
f 91/1/197 94/1/197 143/1/197 144/1/197 
f 139/1/198 91/1/198 144/1/198 145/1/198 
f 104/1/199 139/1/199 145/1/199 146/1/199 
f 140/1/200 104/1/200 146/1/200 147/1/200 
f 141/1/201 140/1/201 147/1/201 148/1/201 
f 102/1/202 141/1/202 148/1/202 149/1/202 
f 96/1/203 102/1/203 149/1/203 150/1/203 
f 94/1/204 96/1/204 150/1/204 143/1/204 
f 100/1/205 144/1/205 143/1/205 97/1/205 
f 99/1/206 145/1/206 144/1/206 100/1/206 
f 134/1/207 146/1/207 145/1/207 99/1/207 
f 135/1/208 147/1/208 146/1/208 134/1/208 
f 137/1/209 148/1/209 147/1/209 135/1/209 
f 136/1/210 149/1/210 148/1/210 137/1/210 
f 142/1/211 150/1/211 149/1/211 136/1/211 
f 97/1/212 143/1/212 150/1/212 142/1/212 
s 1
f 123/6/195 67/18/81 77/20/101 88/1/213 
s off
f 88/1/214 77/20/214 78/21/214 85/1/214 
f 78/21/215 52/13/215 103/1/215 85/1/215 
f 109/1/216 62/16/216 79/22/216 110/1/216 
s 1
f 125/9/217 80/23/106 68/19/82 122/8/194 
s off
f 112/1/218 44/10/218 81/24/218 106/1/218 
f 106/1/219 81/24/219 65/17/219 107/1/219 
f 54/14/220 82/25/220 89/1/220 92/1/220 
f 82/25/221 83/26/221 124/1/221 89/1/221 
s 2
f 83/27/111 80/23/114 125/9/222 124/2/223 
s off
f 110/1/224 79/22/224 84/28/224 126/1/224 
# 142 polygons

